
      <svg data-logo="logo" xmlns="http://www.w3.org/2000/svg" viewBox="0 0 50 41">
        <g id="logogram" transform="translate(0, 0) rotate(0) "><path d="M37.6855 40.6999C44.1183 40.5688 49.2908 35.3072 49.2908 28.8387C49.2908 25.693 48.042 22.676 45.8191 20.4517L26.0803 0.69989V12.9769C26.0803 15.0302 26.8955 16.9994 28.3464 18.4513L32.9703 23.0783L32.983 23.0906L40.7361 30.8488C40.9879 31.1008 40.9879 31.5093 40.7361 31.7612C40.4843 32.0132 40.0761 32.0132 39.8243 31.7612L37.1518 29.087H12.4299L9.75738 31.7612C9.5056 32.0132 9.09737 32.0132 8.84559 31.7612C8.5938 31.5093 8.5938 31.1008 8.84559 30.8488L16.5987 23.0906L16.6113 23.0783L21.2353 18.4513C22.6862 16.9994 23.5013 15.0302 23.5013 12.9769V0.69989L3.76259 20.4517C1.53966 22.676 0.290833 25.693 0.290833 28.8387C0.290833 35.3072 5.46336 40.5688 11.8962 40.6999H37.6855Z" fill="#078D55"/></g>
        <g id="logotype" transform="translate(50, 20.5)"></g>
        
      </svg>
    